<svg width="30" height="30" viewBox="0 0 30 30" fill="none" xmlns="http://www.w3.org/2000/svg">
<rect width="30" height="30" rx="4" fill="#146CA1"/>
<path fill-rule="evenodd" clip-rule="evenodd" d="M15.9607 17.1937C15.6479 17.242 15.3274 17.2671 15.001 17.2671C14.6746 17.2671 14.3541 17.242 14.0413 17.1937C13.302 18.9041 11.5996 20.1011 9.61771 20.1011C6.95739 20.1011 4.80078 17.9445 4.80078 15.2841C4.80078 12.9071 6.52251 10.9323 8.7869 10.5386C9.0392 7.32738 11.725 4.80017 15.001 4.80017C18.277 4.80017 20.9628 7.32738 21.2151 10.5386C23.4795 10.9323 25.2012 12.9071 25.2012 15.2841C25.2012 17.9445 23.0446 20.1011 20.3843 20.1011C18.4024 20.1011 16.7001 18.9041 15.9607 17.1937Z" fill="white"/>
<path d="M12.3555 15.514V19.6285H17.6444V15.514C17.6444 14.6391 17.6444 14.2016 17.3893 13.9168C17.3648 13.8895 17.3389 13.8636 17.3116 13.8391C17.0268 13.584 16.5893 13.584 15.7144 13.584H14.2855C13.4106 13.584 12.9731 13.584 12.6883 13.8391C12.661 13.8636 12.635 13.8895 12.6106 13.9168C12.3555 14.2016 12.3555 14.6391 12.3555 15.514Z" fill="#146CA1"/>
<path d="M13.1133 15.3391V20.8943C13.1133 21.4465 13.561 21.8943 14.1133 21.8943H15.8917C16.444 21.8943 16.8917 21.4465 16.8917 20.8943V15.3391C16.8917 14.7868 16.444 14.3391 15.8917 14.3391H14.1133C13.561 14.3391 13.1133 14.7868 13.1133 15.3391Z" fill="white"/>
<path d="M14.2811 24.924C14.6745 25.3328 15.3289 25.3328 15.7223 24.924L18.2798 22.2662C18.8911 21.6309 18.4409 20.5728 17.5592 20.5728H12.4442C11.5625 20.5728 11.1123 21.6309 11.7236 22.2662L14.2811 24.924Z" fill="white"/>
</svg>
