<svg width="12" height="11" viewBox="0 0 12 11" fill="none" xmlns="http://www.w3.org/2000/svg">
<path d="M11.9969 5.48926C11.9969 5.87598 11.6843 6.17891 11.3301 6.17891H10.6634L10.678 9.6207C10.678 9.67871 10.6738 9.73672 10.6676 9.79473V10.1406C10.6676 10.6154 10.2946 11 9.83417 11H9.50081C9.47789 11 9.45497 11 9.43205 10.9979C9.40288 11 9.37371 11 9.34454 11H8.6674H8.16736C7.70691 11 7.33396 10.6154 7.33396 10.1406V9.625V8.25C7.33396 7.86973 7.03602 7.5625 6.66723 7.5625H5.33379C4.96501 7.5625 4.66706 7.86973 4.66706 8.25V9.625V10.1406C4.66706 10.6154 4.29412 11 3.83366 11H3.33362H2.66898C2.63772 11 2.60647 10.9979 2.57522 10.9957C2.55022 10.9979 2.52521 11 2.50021 11H2.16685C1.7064 11 1.33345 10.6154 1.33345 10.1406V7.73438C1.33345 7.71504 1.33345 7.69355 1.33553 7.67422V6.17891H0.666723C0.291691 6.17891 0 5.87813 0 5.48926C0 5.2959 0.0625053 5.12402 0.208351 4.97363L5.55047 0.171875C5.69632 0.0214844 5.863 0 6.00884 0C6.15469 0 6.32137 0.0429688 6.44638 0.150391L11.7677 4.97363C11.9343 5.12402 12.0177 5.2959 11.9969 5.48926Z" fill="black"/>
</svg>
