<svg width="43" height="43" viewBox="0 0 43 43" fill="none" xmlns="http://www.w3.org/2000/svg">
<path d="M21.0164 10.2352C15.0539 10.2352 10.2445 15.0445 10.2445 21.007C10.2445 26.9695 15.0539 31.7789 21.0164 31.7789C26.9789 31.7789 31.7883 26.9695 31.7883 21.007C31.7883 15.0445 26.9789 10.2352 21.0164 10.2352ZM21.0164 28.0102C17.1633 28.0102 14.0133 24.8695 14.0133 21.007C14.0133 17.1445 17.1539 14.0039 21.0164 14.0039C24.8789 14.0039 28.0195 17.1445 28.0195 21.007C28.0195 24.8695 24.8695 28.0102 21.0164 28.0102ZM34.7414 9.79453C34.7414 11.1914 33.6164 12.307 32.2289 12.307C30.832 12.307 29.7164 11.182 29.7164 9.79453C29.7164 8.40703 30.8414 7.28203 32.2289 7.28203C33.6164 7.28203 34.7414 8.40703 34.7414 9.79453ZM41.8758 12.3445C41.7164 8.97891 40.9477 5.99766 38.482 3.54141C36.0258 1.08516 33.0445 0.316406 29.6789 0.147656C26.2102 -0.0492187 15.8133 -0.0492187 12.3445 0.147656C8.98828 0.307031 6.00703 1.07578 3.54141 3.53203C1.07578 5.98828 0.316406 8.96953 0.147656 12.3352C-0.0492187 15.8039 -0.0492187 26.2008 0.147656 29.6695C0.307031 33.0352 1.07578 36.0164 3.54141 38.4727C6.00703 40.9289 8.97891 41.6977 12.3445 41.8664C15.8133 42.0633 26.2102 42.0633 29.6789 41.8664C33.0445 41.707 36.0258 40.9383 38.482 38.4727C40.9383 36.0164 41.707 33.0352 41.8758 29.6695C42.0727 26.2008 42.0727 15.8133 41.8758 12.3445ZM37.3945 33.3914C36.6633 35.2289 35.2477 36.6445 33.4008 37.3852C30.6352 38.482 24.0727 38.2289 21.0164 38.2289C17.9602 38.2289 11.3883 38.4727 8.63203 37.3852C6.79453 36.6539 5.37891 35.2383 4.63828 33.3914C3.54141 30.6258 3.79453 24.0633 3.79453 21.007C3.79453 17.9508 3.55078 11.3789 4.63828 8.62266C5.36953 6.78516 6.78516 5.36953 8.63203 4.62891C11.3977 3.53203 17.9602 3.78516 21.0164 3.78516C24.0727 3.78516 30.6445 3.54141 33.4008 4.62891C35.2383 5.36016 36.6539 6.77578 37.3945 8.62266C38.4914 11.3883 38.2383 17.9508 38.2383 21.007C38.2383 24.0633 38.4914 30.6352 37.3945 33.3914Z" fill="#ECECEC"/>
</svg>
