<svg width="30" height="30" viewBox="0 0 30 30" fill="none" xmlns="http://www.w3.org/2000/svg">
<circle cx="15" cy="15" r="14.5" stroke="#F6F6F6"/>
<path d="M11.596 20V10.2H15.264C16.0947 10.2 16.8087 10.3353 17.406 10.606C18.0033 10.8673 18.4607 11.25 18.778 11.754C19.1047 12.2487 19.268 12.8507 19.268 13.56C19.268 14.2507 19.1047 14.848 18.778 15.352C18.4607 15.8467 18.0033 16.2293 17.406 16.5C16.8087 16.7613 16.0947 16.892 15.264 16.892H12.17L12.632 16.416V20H11.596ZM18.288 20L15.768 16.444H16.888L19.422 20H18.288ZM12.632 16.5L12.17 16.01H15.236C16.216 16.01 16.958 15.7953 17.462 15.366C17.9753 14.9367 18.232 14.3347 18.232 13.56C18.232 12.776 17.9753 12.1693 17.462 11.74C16.958 11.3107 16.216 11.096 15.236 11.096H12.17L12.632 10.606V16.5Z" fill="#E9E9E9"/>
</svg>
