<svg width="436" height="130" viewBox="0 0 436 130" fill="none" xmlns="http://www.w3.org/2000/svg">
<g clip-path="url(#clip0_3527_3575)">
<path d="M27.7505 36.4099C28.4905 35.3199 27.8505 34.6099 27.7105 34.4799C27.5705 34.3399 27.2905 34.1099 26.6405 34.1399L26.7305 33.4299C27.3705 28.2599 30.3305 14.6999 36.4805 14.0499C36.5705 14.0299 45.0705 11.7199 56.4705 22.0699C49.7905 23.3299 31.7605 27.2499 29.2005 33.3799L31.3005 34.2599C33.2705 29.5299 49.7605 25.6099 57.6005 24.1799L58.5105 25.4899C58.5105 25.4899 59.6705 25.2599 63.8505 28.4799C72.8305 35.3899 83.8105 48.1999 83.8205 50.3599C83.8205 50.3199 83.8405 50.1999 83.9505 50.0699L85.6405 51.5899C91.7205 45.6099 94.6205 40.2999 94.2405 35.8199C93.9505 32.2899 91.6705 30.6499 91.6605 30.6499C84.5205 24.5099 66.7305 22.3499 61.1305 21.8099L65.3205 13.4699L63.2905 12.4499L58.8705 21.2299C46.1105 9.09985 36.2705 11.7399 36.0405 11.8199C28.3205 12.5999 25.4405 26.7999 24.6705 31.6899L10.4005 26.0499L9.56049 28.1699L25.3805 34.4199C24.3605 34.7999 22.8805 35.5999 20.7205 37.1699C12.6605 42.9999 5.65049 52.5299 10.1305 61.7598L12.1805 60.7699C10.3705 57.0399 10.6405 52.9999 12.9805 48.7699C16.2805 42.8099 22.6705 38.2499 25.5105 36.8299C25.7705 42.9599 35.3105 60.0399 40.0505 68.1799L27.3605 98.8399L29.4605 99.7099L42.5905 68.0099L42.3105 67.5198C34.5505 54.2598 26.7805 38.5799 27.7405 36.3999L27.7505 36.4099ZM90.2805 32.4399C90.2805 32.4399 91.7905 33.5599 91.9905 35.9999C92.1905 38.3999 91.1705 42.4599 85.5105 48.4699C84.2605 45.7399 80.8605 41.5299 75.3505 35.8599C71.5105 31.9199 65.6105 26.2599 61.3705 24.1199C67.2205 24.7199 83.8305 26.8899 90.2905 32.4299L90.2805 32.4399ZM34.1305 70.3299C32.5205 70.5199 28.1305 70.9699 23.4305 70.9699C17.2005 70.9699 10.4305 70.1799 8.85049 66.9399L10.9005 65.9399C12.4205 69.0599 25.2405 69.0699 33.8705 68.0699L34.1305 70.3299ZM46.9305 67.0198L48.8805 65.8498C48.7205 65.5898 48.5005 65.4899 48.4305 65.4799C52.3105 66.3099 76.5505 57.0199 77.6305 55.0699C77.6105 55.1099 77.5505 55.2899 77.6305 55.4999L79.7805 54.7598C80.2905 56.2498 78.7505 57.6399 74.3105 59.6999C74.1005 59.7999 55.1005 67.6199 48.8205 67.6199C47.8605 67.6199 47.2005 67.4398 46.9405 67.0198H46.9305ZM83.6205 56.4899C83.7705 57.7899 87.0505 88.4299 72.7305 90.5499C71.9005 90.6699 71.0705 90.7299 70.2405 90.7299C57.2905 90.7299 45.3905 76.4599 44.8605 75.8199L46.6205 74.3699C46.7505 74.5299 59.7805 90.1599 72.3905 88.2999C84.5505 86.4999 81.3905 57.0499 81.3505 56.7499L83.6105 56.4999L83.6205 56.4899ZM101 61.2199L100.11 63.3199L82.2605 55.7799L83.1505 53.6799L101 61.2199Z" fill="#009EE2"/>
<path d="M6.73023 33.2599C7.43023 33.7099 8.24023 33.9399 9.09023 33.9399C9.77023 33.9399 10.4702 33.7999 11.1902 33.5099C12.6702 32.9199 14.0302 31.7499 15.0102 30.2399C17.1402 26.9299 16.8402 23.0699 14.3302 21.4599C13.0702 20.6499 11.4902 20.5599 9.87023 21.2099C8.39023 21.7999 7.03023 22.9699 6.05023 24.4799C3.92023 27.7899 4.22023 31.6499 6.73023 33.2599Z" fill="#004B8C"/>
<path d="M63.3803 15.6099C64.2803 15.9699 65.1902 16.1399 66.0202 16.1399C67.7502 16.1399 69.1803 15.4099 69.7103 14.0899C70.4803 12.1399 68.9203 9.73995 66.1503 8.63995C64.9203 8.14995 63.6203 7.98995 62.5003 8.19995C61.2003 8.43995 60.2303 9.14995 59.8203 10.1599C59.0503 12.1099 60.6103 14.5099 63.3803 15.6099Z" fill="#004B8C"/>
<path d="M38.514 96.8299C39.374 93.2252 36.6962 89.4978 32.5329 88.5044C28.3695 87.511 24.2973 89.6279 23.4372 93.2325C22.5771 96.8371 25.2549 100.565 29.4183 101.558C33.5816 102.551 37.6539 100.434 38.514 96.8299Z" fill="#004B8C"/>
<path d="M74.7404 78.03C69.0604 78.03 64.4404 82.65 64.4404 88.33C64.4404 94.01 69.0604 98.63 74.7404 98.63C80.4204 98.63 85.0404 94.01 85.0404 88.33C85.0404 82.65 80.4204 78.03 74.7404 78.03Z" fill="#004B8C"/>
<path d="M9.02047 51.3299C3.54047 51.8699 -0.489528 56.7699 0.0504724 62.2499C0.550472 67.3999 4.91047 71.2699 9.99047 71.2699C10.3105 71.2699 10.6405 71.2499 10.9705 71.2199C16.4505 70.6799 20.4805 65.7899 19.9405 60.3099C19.4005 54.8299 14.5305 50.8099 9.03047 51.3399L9.02047 51.3299Z" fill="#004B8C"/>
<path d="M54.5604 35.7299C49.5904 34.3699 44.5804 36.7599 43.4004 41.0499C42.3004 45.0499 44.9004 49.3199 49.2804 50.9899C49.6104 51.1099 49.9404 51.2199 50.2804 51.3199C52.6504 51.9699 55.1104 51.7899 57.2004 50.8299C59.3504 49.8299 60.8604 48.1199 61.4404 45.9999C62.6204 41.6999 59.5204 37.0999 54.5604 35.7299Z" fill="#004B8C"/>
<path d="M32.9408 17.8199C34.1208 18.3399 35.4808 18.4999 36.8308 18.2699C37.0708 18.2299 37.3108 18.1799 37.5508 18.1099C40.9108 17.1999 43.0308 14.1499 42.2608 11.3099C41.8808 9.88992 40.8508 8.74992 39.3808 8.08992C37.9908 7.46992 36.3508 7.36992 34.7608 7.79992C33.1708 8.22992 31.8108 9.13992 30.9208 10.3699C29.9808 11.6799 29.6708 13.1799 30.0508 14.5999C30.4308 16.0199 31.4608 17.1599 32.9308 17.8199H32.9408Z" fill="#004B8C"/>
<path d="M40.5207 80.6299C47.0156 80.6299 52.2807 75.3647 52.2807 68.8699C52.2807 62.375 47.0156 57.1099 40.5207 57.1099C34.0259 57.1099 28.7607 62.375 28.7607 68.8699C28.7607 75.3647 34.0259 80.6299 40.5207 80.6299Z" fill="#004B8C"/>
<path d="M87.2604 45.28C82.5704 43.11 76.7904 45.58 74.3704 50.79C73.2104 53.29 72.9904 56.05 73.7404 58.56C74.5104 61.12 76.2004 63.12 78.4904 64.18C79.6404 64.71 80.8604 64.97 82.0904 64.97C85.8204 64.97 89.5604 62.6 91.3804 58.67C93.7904 53.46 91.9404 47.45 87.2504 45.27L87.2604 45.28Z" fill="#004B8C"/>
<path d="M57.7407 28.7299C58.5707 28.9799 59.4207 29.0999 60.2507 29.0999C61.1507 29.0999 62.0207 28.9499 62.8107 28.6599C64.4607 28.0599 65.6107 26.9099 66.0507 25.4299C66.9207 22.5099 64.6207 19.2199 60.9207 18.1199C59.1807 17.5999 57.3907 17.6199 55.8507 18.1799C54.2007 18.7799 53.0507 19.9299 52.6107 21.4099C51.7407 24.3299 54.0407 27.6199 57.7407 28.7199V28.7299Z" fill="#004B8C"/>
<path d="M85.6109 36.7C87.6909 38.38 90.1109 39.22 92.3209 39.22C94.5309 39.22 96.3209 38.4599 97.5609 36.9299C100.101 33.7899 98.8709 28.5699 94.8109 25.2999C92.8909 23.7499 90.6309 22.8599 88.4309 22.7699C86.1409 22.6799 84.1309 23.4899 82.8609 25.0699C80.3209 28.2099 81.5509 33.43 85.6109 36.7Z" fill="#004B8C"/>
<path d="M25.3709 41.0099C27.3709 40.6899 29.2809 39.5999 30.7609 37.9699C32.2409 36.3299 33.1309 34.3199 33.2509 32.2999C33.3809 30.1899 32.6709 28.3099 31.2609 27.0299C28.4109 24.4499 23.5509 25.1599 20.4309 28.6099C18.9509 30.2499 18.0609 32.2599 17.9409 34.2799C17.8109 36.3899 18.5209 38.2699 19.9309 39.5499C21.0609 40.5799 22.5209 41.1099 24.1309 41.1099C24.5309 41.1099 24.9509 41.0799 25.3609 41.0099H25.3709Z" fill="#004B8C"/>
<path d="M104.831 60.1899C104.471 58.7099 103.561 57.5899 102.351 57.0999C101.121 56.6099 99.6908 56.8099 98.4208 57.6399C97.2508 58.3999 96.2808 59.6299 95.7008 61.0899C95.1208 62.5599 94.9808 64.1099 95.3108 65.4699C95.6708 66.9499 96.5708 68.0699 97.7908 68.5599C98.2508 68.7399 98.7208 68.8299 99.2008 68.8299C101.281 68.8299 103.401 67.1799 104.441 64.5699C105.021 63.1099 105.161 61.5499 104.831 60.1899Z" fill="#004B8C"/>
<path d="M218.981 77.97L212.881 71.56V27.95C212.881 26.03 214.441 24.47 216.361 24.47H226.581C228.501 24.47 230.061 26.03 230.061 27.95V77.62H230.281L245.831 53.18C246.471 52.18 247.581 51.57 248.761 51.57H260.261C263.131 51.57 264.761 54.85 263.041 57.14L247.291 78.06L268.651 107.97H248.061L230.291 79.99H230.071V107.97H212.901V84.71L219.001 77.97H218.981Z" fill="#1D70B7"/>
<path d="M330.201 107.97H313.081V99.3801H312.811C308.571 106.03 302.901 109.35 295.801 109.35C282.901 109.35 276.461 101.44 276.461 85.6101V54.9901C276.461 53.1001 277.991 51.5701 279.881 51.5701H290.161C292.051 51.5701 293.581 53.1001 293.581 54.9901V84.0701C293.581 92.0401 296.701 96.0201 302.931 96.0201C306.011 96.0201 308.471 94.9301 310.321 92.7401C312.171 90.5601 313.091 87.5901 313.091 83.8501V54.9901C313.091 53.1001 314.621 51.5701 316.511 51.5701H326.791C328.681 51.5701 330.211 53.1001 330.211 54.9901V107.97H330.201Z" fill="#1D70B7"/>
<path d="M364.061 107.97H346.891V27.96C346.891 26.03 348.451 24.47 350.381 24.47H360.581C362.511 24.47 364.071 26.03 364.071 27.96V107.97H364.061Z" fill="#1D70B7"/>
<path d="M428.961 77.99L435.191 85.26V107.98H418.021V100.21H417.801C413.891 106.31 408.151 109.35 400.571 109.35C393.621 109.35 388.021 106.86 383.781 101.89C379.541 96.92 377.421 89.97 377.421 81.04C377.421 72.11 379.761 64.24 384.431 58.62C389.101 53 395.231 50.19 402.801 50.19C409.971 50.19 414.971 52.8 417.801 58.01H418.021V27.93C418.021 26.02 419.571 24.47 421.481 24.47H431.741C433.651 24.47 435.201 26.02 435.201 27.93V70.9L428.971 77.99H428.961ZM418.341 80.55V76.31C418.341 72.64 417.291 69.59 415.191 67.17C413.091 64.75 410.351 63.53 406.981 63.53C403.181 63.53 400.211 65.05 398.071 68.07C395.931 71.1 394.861 75.26 394.861 80.55C394.861 85.51 395.891 89.33 397.961 92.01C400.021 94.69 402.891 96.03 406.541 96.03C410.191 96.03 412.851 94.62 415.041 91.79C417.231 88.96 418.331 85.22 418.331 80.55H418.341Z" fill="#1D70B7"/>
<path d="M176.7 74.61C176.69 74.55 176.68 74.51 176.67 74.51C176.81 80.4 173.53 83.35 168.93 84.68C167.08 85.22 165.02 85.48 162.89 85.58C159.7 85.73 156.34 85.49 153.27 85.14C151.36 84.92 149.56 84.58 147.87 84.18C147.64 84.12 147.4 84.07 147.17 84.01C146.44 83.82 145.73 83.62 145.05 83.41C144.61 83.27 144.18 83.14 143.76 83C142.83 82.68 141.95 82.35 141.12 82.02C141.1 82.02 141.07 82 141.05 81.99C138.61 80.99 136.69 79.97 135.35 79.2C134.41 78.66 133.75 78.24 133.43 78.05L127.96 86.93L121.71 97.08L121.69 97.11C130.06 106.25 148.41 108.21 148.41 108.21C148.41 108.21 148.41 108.21 148.42 108.21C179.66 101.84 177.03 76.41 176.68 74.63L176.7 74.61Z" fill="#004B8C"/>
<path d="M149.191 34.6901C149.191 34.6901 149.191 34.6801 149.191 34.6701C147.801 16.2901 176.641 25.4101 184.981 28.4201C186.291 28.8901 187.751 28.3801 188.481 27.2001L197.411 12.7301C198.271 11.3401 197.841 9.50008 196.431 8.67008C196.431 8.67008 196.411 8.67008 196.401 8.66008C196.321 8.61008 196.251 8.57008 196.171 8.53008C191.991 6.09008 187.881 4.41008 184.241 3.25008C184.091 3.20008 183.941 3.15008 183.791 3.11008C183.311 2.96008 182.851 2.83008 182.391 2.70008C181.851 2.55008 181.331 2.41008 180.821 2.28008C180.711 2.25008 180.611 2.22008 180.501 2.20008C177.691 1.49008 175.341 1.10008 173.731 0.890078C172.211 0.690078 171.351 0.580078 171.351 0.580078C139.031 7.18008 149.201 34.7101 149.201 34.7101L149.191 34.6901Z" fill="#004B8C"/>
<path d="M164.32 42.88C159.44 41.61 151.12 40.67 149.2 34.67C149.2 34.67 149.2 34.68 149.2 34.69C149.2 34.69 139.03 7.16 171.35 0.56C167.93 0.18 164.47 0 160.97 0C141.89 0 124.41 8.58 124.41 32.65C124.41 54.7 143.43 61.84 159.61 65.58C164.25 66.66 175.25 67.68 176.66 74.52C176.66 74.52 176.67 74.56 176.69 74.62C177.04 76.4 179.67 101.84 148.43 108.2C152.73 108.84 157 109.11 160.97 109.11C180.89 109.11 201.2 102.34 201.2 76.03C201.2 53.11 180.7 47.13 164.32 42.88Z" fill="#009EE2"/>
<path d="M435.191 117.67H381.921V129.08H435.191V117.67Z" fill="#004B8C"/>
</g>
<defs>
<clipPath id="clip0_3527_3575">
<rect width="435.18" height="129.08" fill="white"/>
</clipPath>
</defs>
</svg>
