<svg width="201" height="204" viewBox="0 0 201 204" fill="none" xmlns="http://www.w3.org/2000/svg">
<path d="M72.0844 170H3.11206C-1.18751 187.729 9.0837 197.534 14.7567 200.22C67.6057 201.563 176.528 203.444 189.427 200.22C202.326 196.997 199.579 178.73 196.593 170H129.412C133.712 182.088 122.246 185.782 115.976 186.117C73.6968 192.564 69.0986 178.059 72.0844 170Z" fill="white"/>
<path d="M21.4737 67.5262V164.632H178.053V113.632C120.074 133.674 98.421 88.5789 94.8421 63.5262H25.4737C23.2645 63.5262 21.4737 65.3171 21.4737 67.5262Z" fill="white" stroke="white"/>
<path d="M13.873 204C9.85966 202.994 6.23274 201.295 3.56169 197.7C1.5279 194.973 0.172044 191.918 0.0771335 188.451C-0.0652317 182.377 0.033068 176.293 0.033068 170.044H60.0773V176.566H6.06325C6.25646 181.094 6.1141 185.396 6.71746 189.57C7.32081 193.745 10.8494 196.574 14.7713 197.015C15.6654 197.115 16.5637 197.166 17.4626 197.168C71.41 197.168 125.355 197.178 179.298 197.197C183.589 197.197 187.206 196.001 189.304 191.674C189.936 190.394 190.311 188.985 190.403 187.54C190.555 184.029 190.453 180.507 190.453 176.715H136.636V170H196.816C196.816 173.77 196.887 177.485 196.795 181.192C196.711 184.568 196.924 188.068 196.162 191.28C194.524 198.181 190.114 202.294 183.583 203.676C183.348 203.753 183.121 203.856 182.905 203.982L13.873 204Z" fill="white"/>
<path d="M102.556 13.8415C111.301 13.9115 119.837 13.453 128.171 11.0907C136.481 8.71269 144.34 4.96488 151.429 0C158.552 4.89964 166.204 8.67237 174.527 11.0382C182.851 13.404 191.408 13.943 200.344 13.8135V15.8048C200.344 31.3402 200.546 46.8791 200.295 62.4144C199.947 83.6089 190.221 99.3228 170.973 107.869C152.589 116.031 134.987 113.101 119.541 100.093C108.116 90.4719 102.671 77.6943 102.514 62.7749C102.351 46.9071 102.476 31.0392 102.48 15.1784C102.48 14.8459 102.514 14.5204 102.556 13.8415ZM109.171 20.3615C109.129 20.9425 109.077 21.3274 109.077 21.7124C109.077 35.4524 109.077 49.1936 109.077 62.9359C109.077 71.3108 111.413 78.9822 115.837 86.0797C125.933 102.277 147.297 109.773 165.114 103.288C182.931 96.8029 193.789 81.3131 193.876 62.1835C193.935 48.9089 193.876 35.6309 193.876 22.3564V20.484C193.396 20.4 193.204 20.3405 193.009 20.3335C178.527 19.952 165.037 16.1128 152.627 8.53938C151.69 7.96892 151.046 8.11941 150.12 8.57787C145.281 10.9752 140.498 13.544 135.499 15.5249C127.155 18.8321 118.347 20.134 109.167 20.3615H109.171Z" fill="white"/>
<path d="M62.9935 154.989C57.4495 154.989 51.9054 155.008 46.3614 154.989C40.5771 154.961 37.0536 151.47 37.0228 145.63C36.9735 136.27 37.0228 126.935 37.0012 117.591C37.0012 113.813 38.5413 111.039 41.8091 109.152C42.2989 108.871 42.6808 107.994 42.7085 107.373C42.8933 103.658 42.6623 99.8857 43.1182 96.226C44.3101 86.6105 52.8664 79.2101 62.6701 79.0041C72.1812 78.8045 81.0578 85.8461 82.6378 95.2963C83.2723 99.1057 83.0413 103.068 83.1152 106.965C83.1368 108.116 83.3062 108.837 84.4643 109.461C87.458 111.055 88.9272 113.772 88.9488 117.154C89.0042 126.736 89.0288 136.32 88.9488 145.904C88.9026 151.361 85.2343 154.952 79.8258 154.98C74.2047 155.021 68.5991 154.986 62.9935 154.989ZM62.9504 114.094C57.4618 114.094 51.9763 114.094 46.4877 114.094C43.8019 114.094 42.7486 115.139 42.7424 117.838C42.726 127.004 42.726 136.17 42.7424 145.336C42.7424 148.144 43.7804 149.186 46.5739 149.193C57.4916 149.205 68.4092 149.205 79.3268 149.193C82.1204 149.193 83.1183 148.166 83.1214 145.336C83.1337 136.23 83.1337 127.123 83.1214 118.015C83.1214 115.036 82.1974 114.103 79.2375 114.097C73.8105 114.089 68.3815 114.087 62.9504 114.094ZM48.5359 108.097H77.1585C77.1585 104.463 77.3956 100.965 77.1061 97.5145C76.5979 91.4588 71.8208 86.4389 65.7593 85.1566C59.9073 83.9086 53.4824 86.9193 50.5133 92.1389C47.6365 97.2119 48.8039 102.684 48.5359 108.097Z" fill="#000C1D"/>
<path d="M11.2051 164.509H4.59077V162.276C4.59077 129.677 4.59077 97.077 4.59077 64.4757C4.59077 53.462 11.4418 46.6095 22.4112 46.6095C46.1231 46.6095 69.8337 46.6095 93.5433 46.6095H95.8548V53.014C95.0472 53.049 94.2186 53.119 93.3936 53.1225C69.6817 53.1225 45.971 53.1225 22.2615 53.1225C16.5314 53.1225 12.716 55.7473 11.5149 60.612C11.1877 61.9419 11.1982 63.3733 11.1982 64.7592C11.1796 97.0945 11.1796 129.43 11.1982 161.765L11.2051 164.509Z" fill="white"/>
<path d="M132.312 170C132.312 173.915 132.602 177.741 132.237 181.501C131.788 186.136 127.443 189.574 122.472 189.645C117.165 189.719 111.857 189.666 106.575 189.666C96.7812 189.666 86.9922 189.666 77.208 189.666C70.2201 189.666 66.2573 185.702 66.2184 178.723C66.2007 175.86 66.2184 173.001 66.2184 170.011L132.312 170ZM125.865 176.58H72.9162C72.3996 181.985 73.3974 183.1 78.5773 183.1H120.402C121.007 183.1 121.612 183.132 122.21 183.1C124.567 182.902 125.713 181.737 125.847 179.386C125.907 178.507 125.865 177.639 125.865 176.58Z" fill="white"/>
<path d="M193.74 164.509H187.411V102.473H193.74V164.509Z" fill="white"/>
<path d="M24.3816 184.436H30.5747V190.767H24.3816V184.436Z" fill="#000C1D"/>
<path d="M43.6678 190.806H37.4538V184.538H43.6678V190.806Z" fill="#000C1D"/>
<path d="M50.4318 190.701V184.492H56.6981V190.701H50.4318Z" fill="#000C1D"/>
<path d="M66.3053 136.882V143H60.6521C60.6521 141.382 60.6127 139.819 60.6521 138.259C60.6854 137.286 60.422 136.715 59.4924 136.218C57.7913 135.33 56.4451 133.868 55.6835 132.081C54.922 130.293 54.7924 128.292 55.3169 126.418C55.8018 124.565 56.8771 122.928 58.3736 121.766C59.8701 120.605 61.7029 119.983 63.5835 120C65.4641 120.017 67.2857 120.672 68.7619 121.86C70.238 123.049 71.2847 124.704 71.7374 126.566C72.7064 130.424 70.938 134.365 67.353 136.326C67.0532 136.489 66.7443 136.647 66.3053 136.882ZM63.5589 131.465C64.2814 131.454 64.972 131.159 65.4857 130.641C65.9994 130.123 66.2964 129.422 66.3144 128.685C66.2979 127.918 65.9899 127.188 65.4554 126.649C64.9209 126.109 64.2018 125.803 63.4499 125.794C63.0763 125.803 62.7081 125.888 62.3674 126.045C62.0266 126.202 61.7201 126.427 61.466 126.706C61.2119 126.986 61.0154 127.315 60.8881 127.673C60.7608 128.031 60.7052 128.412 60.7248 128.793C60.7384 129.158 60.8225 129.517 60.9722 129.849C61.122 130.181 61.3344 130.479 61.5973 130.727C61.8603 130.976 62.1686 131.168 62.5047 131.295C62.8407 131.421 63.198 131.479 63.5559 131.465H63.5589Z" fill="#000C1D"/>
<path d="M115.59 27.0281C121.393 25.7997 127.127 25.0332 132.561 23.3114C138.562 21.4075 144.282 18.6077 150.148 16.2629C150.844 15.9864 151.861 15.8009 152.446 16.1124C162.826 21.6797 174.17 25.1996 185.865 26.4821C186.255 26.5241 186.638 26.6361 187.133 26.7376C187.209 27.1728 187.261 27.6122 187.286 28.0535C187.286 40.2641 187.432 52.4782 187.192 64.6818C186.844 82.5305 171.735 97.9644 154.047 98.8884C132.77 100.005 115.903 84.3434 115.572 62.96C115.388 51.2183 115.538 39.4697 115.538 27.7245C115.538 27.4691 115.576 27.2066 115.59 27.0281ZM122.117 49.7449H122.204C122.204 54.7881 122.065 59.8382 122.228 64.8743C122.698 79.1603 135.193 91.7629 149.382 92.4138C166.903 93.2188 180.626 80.2662 180.811 62.638C180.908 53.1467 180.811 43.6554 180.859 34.1641C180.859 32.8377 180.48 32.3547 179.161 32.1377C169.971 30.6207 161.056 27.7455 152.703 23.6054C152.3 23.4373 151.869 23.3507 151.433 23.3507C150.996 23.3507 150.565 23.4373 150.162 23.6054C141.882 27.7257 133.038 30.5814 123.92 32.0782C122.347 32.3302 122.072 33.0092 122.089 34.4126C122.159 39.5117 122.117 44.6353 122.117 49.7449Z" fill="white"/>
<path d="M184.316 32.2105L151.211 21.4736L119 32.2105C118.105 62.6315 118.105 91.2631 154.789 95.7368C184.137 99.3157 186.702 54.8771 184.316 32.2105Z" fill="white" stroke="white"/>
<path d="M133.872 65.5161C135.008 63.992 136.062 62.5782 137.179 61.0688L147.14 68.5363L147.554 68.8466L147.85 68.4224C154.311 59.1664 160.721 49.9616 167.222 40.6265C167.631 40.0383 168.041 39.4496 168.452 38.8603L172.992 42.0199C170.606 45.4469 168.226 48.8649 165.848 52.2805C160.181 60.4204 154.523 68.5471 148.809 76.7517L133.872 65.5161Z" fill="#000C1D" stroke="#000C1D"/>
</svg>
