<svg width="222" height="221" viewBox="0 0 222 221" fill="none" xmlns="http://www.w3.org/2000/svg">
<path d="M29.5696 204.021C29.5696 211.486 23.5119 217.541 16.0348 217.541C8.55764 217.541 2.5 211.486 2.5 204.021C2.5 196.555 8.55764 190.5 16.0348 190.5C23.5119 190.5 29.5696 196.555 29.5696 204.021Z" stroke="white" stroke-width="5"/>
<path d="M29.5696 113.143C29.5696 120.608 23.5119 126.664 16.0348 126.664C8.55764 126.664 2.5 120.608 2.5 113.143C2.5 105.678 8.55764 99.6227 16.0348 99.6227C23.5119 99.6227 29.5696 105.678 29.5696 113.143Z" stroke="white" stroke-width="5"/>
<path d="M29.5696 18.3113C29.5696 25.7765 23.5119 31.8319 16.0348 31.8319C8.55764 31.8319 2.5 25.7765 2.5 18.3113C2.5 10.8462 8.55764 4.79071 16.0348 4.79071C23.5119 4.79071 29.5696 10.8462 29.5696 18.3113Z" stroke="white" stroke-width="5"/>
<path d="M219.406 16.0206C219.406 23.4857 213.348 29.5412 205.871 29.5412C198.394 29.5412 192.336 23.4857 192.336 16.0206C192.336 8.55547 198.394 2.5 205.871 2.5C213.348 2.5 219.406 8.55547 219.406 16.0206Z" stroke="white" stroke-width="5"/>
<path d="M219.406 113.143C219.406 120.608 213.348 126.664 205.871 126.664C198.394 126.664 192.336 120.608 192.336 113.143C192.336 105.678 198.394 99.6227 205.871 99.6227C213.348 99.6227 219.406 105.678 219.406 113.143Z" stroke="white" stroke-width="5"/>
<path d="M219.406 204.021C219.406 211.486 213.348 217.541 205.871 217.541C198.394 217.541 192.336 211.486 192.336 204.021C192.336 196.555 198.394 190.5 205.871 190.5C213.348 190.5 219.406 196.555 219.406 204.021Z" stroke="white" stroke-width="5"/>
<path d="M32 203.691H63.8484L87.9006 176.227" stroke="white" stroke-width="4"/>
<path d="M194.417 203.691H159.841L137.15 176.227" stroke="white" stroke-width="4"/>
<path d="M194.417 16.0222H159.841L137.15 43.4861" stroke="white" stroke-width="4"/>
<path d="M30.5 16.0222H65.8798L86.7552 43.4861" stroke="white" stroke-width="4"/>
<path d="M183.255 111C183.255 150.973 150.821 183.381 110.807 183.381C70.7943 183.381 38.3602 150.973 38.3602 111C38.3602 71.0261 70.7943 38.6182 110.807 38.6182C150.821 38.6182 183.255 71.0261 183.255 111Z" fill="white" stroke="white" stroke-width="4"/>
<path d="M179.528 114H193.272" stroke="white" stroke-width="2"/>
<path d="M29.4882 114H43.2323" stroke="white" stroke-width="2"/>
<path d="M131.424 67.5138H89.0467C89.0467 80.3303 76.0662 82.0086 69.5759 81.2457C64.9945 129.765 97.4459 157.153 114.244 164.782C150.895 150.134 154.713 102.988 152.04 81.2457C137.151 81.2457 134.86 73.9983 131.424 67.5138Z" fill="#000C1D" stroke="white" stroke-width="2"/>
<path d="M111.07 80.4508L117.479 100.158C117.747 100.982 118.515 101.54 119.381 101.54H140.12L123.344 113.718C122.642 114.227 122.348 115.13 122.617 115.955L129.025 135.66L112.245 123.48C111.545 122.971 110.596 122.971 109.896 123.48L93.1161 135.66L99.5243 115.955C99.7924 115.13 99.4989 114.227 98.7973 113.718L82.0212 101.54H102.759C103.626 101.54 104.393 100.982 104.661 100.158L111.07 80.4508Z" fill="white" stroke="white" stroke-width="2"/>
</svg>
