<svg width="58" height="60" viewBox="0 0 58 60" fill="none" xmlns="http://www.w3.org/2000/svg">
<path d="M29 0C29.5558 0 30.1117 0.117832 30.6192 0.341713L53.372 9.75648C56.0304 10.8523 58.012 13.4093 57.9999 16.4965C57.9395 28.1854 53.0095 49.5719 32.19 59.293C30.1721 60.2357 27.8279 60.2357 25.81 59.293C4.99046 49.5719 0.0604715 28.1854 5.49608e-05 16.4965C-0.0120283 13.4093 1.96963 10.8523 4.62796 9.75648L27.3929 0.341713C27.8883 0.117832 28.4442 0 29 0ZM29 7.87117V52.4116C45.675 44.5405 50.1579 27.1131 50.2666 16.6614L29 7.87117Z" fill="black"/>
</svg>
