<svg width="272" height="218" viewBox="0 0 272 218" fill="none" xmlns="http://www.w3.org/2000/svg">
<path d="M15.64 81.75H191.08C199.665 73.3195 211.438 68.125 224.4 68.125C237.363 68.125 249.093 73.3195 257.678 81.7074C265.71 81.0262 272 74.2988 272 66.0812C272 62.973 271.065 59.95 269.365 57.3953L237.235 9.11172C233.453 3.40625 227.12 0 220.278 0H51.7225C44.9225 0 38.5475 3.40625 34.765 9.11172L2.635 57.3527C0.935 59.95 0 62.973 0 66.0387C0 74.7246 7.0125 81.75 15.64 81.75ZM163.2 95.375H136V163.5H54.4V95.375H27.2V163.5V197.562C27.2 208.846 36.3375 218 47.6 218H142.8C154.063 218 163.2 208.846 163.2 197.562V163.5V149.875V95.375ZM224.4 102.188C231.923 102.188 238 108.276 238 115.812V136.25H210.8V115.812C210.8 108.276 216.878 102.188 224.4 102.188ZM190.4 115.812V136.25C182.878 136.25 176.8 142.339 176.8 149.875V204.375C176.8 211.911 182.878 218 190.4 218H258.4C265.923 218 272 211.911 272 204.375V149.875C272 142.339 265.923 136.25 258.4 136.25V115.812C258.4 96.993 243.185 81.75 224.4 81.75C205.615 81.75 190.4 96.993 190.4 115.812Z" fill="white"/>
</svg>
