<svg width="222" height="222" viewBox="0 0 222 222" fill="none" xmlns="http://www.w3.org/2000/svg">
<path d="M79.7812 0C93.1793 0 104.062 10.8832 104.062 24.2812V197.719C104.062 211.117 93.1793 222 79.7812 222C67.2504 222 56.9309 212.504 55.6301 200.277C53.3754 200.884 50.9906 201.188 48.5625 201.188C33.2566 201.188 20.8125 188.743 20.8125 173.438C20.8125 170.229 21.3762 167.107 22.3734 164.245C9.27891 159.302 0 146.641 0 131.812C0 117.981 8.1082 106.014 19.8586 100.464C16.0863 95.7375 13.875 89.7539 13.875 83.25C13.875 69.9387 23.2406 58.8387 35.7281 56.107C35.0344 53.7223 34.6875 51.1641 34.6875 48.5625C34.6875 35.598 43.6195 24.6715 55.6301 21.6363C56.9309 9.4957 67.2504 0 79.7812 0ZM142.219 0C154.75 0 165.026 9.4957 166.37 21.6363C178.424 24.6715 187.312 35.5547 187.312 48.5625C187.312 51.1641 186.966 53.7223 186.272 56.107C198.759 58.7953 208.125 69.9387 208.125 83.25C208.125 89.7539 205.914 95.7375 202.141 100.464C213.892 106.014 222 117.981 222 131.812C222 146.641 212.721 159.302 199.627 164.245C200.624 167.107 201.188 170.229 201.188 173.438C201.188 188.743 188.743 201.188 173.438 201.188C171.009 201.188 168.625 200.884 166.37 200.277C165.069 212.504 154.75 222 142.219 222C128.821 222 117.938 211.117 117.938 197.719V24.2812C117.938 10.8832 128.821 0 142.219 0Z" fill="white"/>
<path d="M59.4643 66.4L81.2679 44.5964M41.625 117.936C44.9286 112.65 53.1214 102.277 59.4643 103.07M69.375 133.793C73.3393 132.471 81.2679 128.639 81.2679 123.882M59.4643 155.596C58.8036 162.204 59.8607 176.211 69.375 179.382" stroke="#000C1D" stroke-width="3"/>
<path d="M118 129.022C124.625 129.022 164.375 127.022 171 161" stroke="#000C1D" stroke-width="3"/>
<path d="M118 91.8324C124.5 91.8324 163.5 98.8081 170 61.5" stroke="#000C1D" stroke-width="3"/>
<path d="M118 69.7398C121.75 69.7398 144.25 75.0512 148 53.5" stroke="#000C1D" stroke-width="3"/>
<path d="M118 152.04C121.871 152.04 144.129 150.399 148 168" stroke="#000C1D" stroke-width="3"/>
<path d="M155.089 46.5785C155.089 50.6763 151.767 53.9982 147.67 53.9982C143.572 53.9982 140.25 50.6763 140.25 46.5785C140.25 42.4808 143.572 39.1589 147.67 39.1589C151.767 39.1589 155.089 42.4808 155.089 46.5785Z" stroke="black" stroke-width="3"/>
<path d="M155.089 175.42C155.089 179.517 151.767 182.839 147.67 182.839C143.572 182.839 140.25 179.517 140.25 175.42C140.25 171.322 143.572 168 147.67 168C151.767 168 155.089 171.322 155.089 175.42Z" stroke="black" stroke-width="3"/>
<path d="M178.875 54.5107C178.875 58.6085 175.553 61.9304 171.455 61.9304C167.358 61.9304 164.036 58.6085 164.036 54.5107C164.036 50.413 167.358 47.0911 171.455 47.0911C175.553 47.0911 178.875 50.413 178.875 54.5107Z" stroke="black" stroke-width="3"/>
<path d="M178.875 167.492C178.875 171.589 175.553 174.911 171.455 174.911C167.358 174.911 164.036 171.589 164.036 167.492C164.036 163.394 167.358 160.072 171.455 160.072C175.553 160.072 178.875 163.394 178.875 167.492Z" stroke="black" stroke-width="3"/>
</svg>
