<svg width="21" height="20" viewBox="0 0 21 20" fill="none" xmlns="http://www.w3.org/2000/svg">
<path d="M9.32338 19.5814C9.97416 20.1395 11.031 20.1395 11.6818 19.5814L20.0119 12.4382C20.6627 11.8801 20.6627 10.9738 20.0119 10.4158C19.3611 9.85769 18.3042 9.85769 17.6535 10.4158L12.166 15.1258L12.166 1.42865C12.166 0.638428 11.4215 0 10.5 0C9.57849 0 8.83399 0.638428 8.83399 1.42865L8.83399 15.1214L3.34655 10.4202C2.69576 9.86216 1.63888 9.86216 0.988091 10.4202C0.337303 10.9783 0.337303 11.8846 0.988091 12.4427L9.31817 19.5859L9.32338 19.5814Z" fill="white"/>
</svg>
