<svg width="223" height="222" viewBox="0 0 223 222" fill="none" xmlns="http://www.w3.org/2000/svg">
<rect width="223" height="119.19" fill="white"/>
<path d="M155.138 60.556C155.138 85.2363 135.552 105.155 111.5 105.155C87.4478 105.155 67.8621 85.2363 67.8621 60.556C67.8621 35.8758 87.4478 15.9569 111.5 15.9569C135.552 15.9569 155.138 35.8758 155.138 60.556Z" stroke="#000C1D" stroke-width="5"/>
<path d="M109.491 83.76V38.64H114.291V83.76H109.491ZM111.219 78.576C108.531 78.576 105.955 78.224 103.491 77.52C101.027 76.784 99.0433 75.84 97.5393 74.688L100.179 68.832C101.619 69.856 103.315 70.704 105.267 71.376C107.251 72.016 109.251 72.336 111.267 72.336C112.803 72.336 114.035 72.192 114.963 71.904C115.923 71.584 116.627 71.152 117.075 70.608C117.523 70.064 117.747 69.44 117.747 68.736C117.747 67.84 117.395 67.136 116.691 66.624C115.987 66.08 115.059 65.648 113.907 65.328C112.755 64.976 111.475 64.656 110.067 64.368C108.691 64.048 107.299 63.664 105.891 63.216C104.515 62.768 103.251 62.192 102.099 61.488C100.947 60.784 100.003 59.856 99.2673 58.704C98.5633 57.552 98.2113 56.08 98.2113 54.288C98.2113 52.368 98.7233 50.624 99.7473 49.056C100.803 47.456 102.371 46.192 104.451 45.264C106.563 44.304 109.203 43.824 112.371 43.824C114.483 43.824 116.563 44.08 118.611 44.592C120.659 45.072 122.467 45.808 124.035 46.8L121.635 52.704C120.067 51.808 118.499 51.152 116.931 50.736C115.363 50.288 113.827 50.064 112.323 50.064C110.819 50.064 109.587 50.24 108.627 50.592C107.667 50.944 106.979 51.408 106.563 51.984C106.147 52.528 105.939 53.168 105.939 53.904C105.939 54.768 106.291 55.472 106.995 56.016C107.699 56.528 108.627 56.944 109.779 57.264C110.931 57.584 112.195 57.904 113.571 58.224C114.979 58.544 116.371 58.912 117.747 59.328C119.155 59.744 120.435 60.304 121.587 61.008C122.739 61.712 123.667 62.64 124.371 63.792C125.107 64.944 125.475 66.4 125.475 68.16C125.475 70.048 124.947 71.776 123.891 73.344C122.835 74.912 121.251 76.176 119.139 77.136C117.059 78.096 114.419 78.576 111.219 78.576Z" fill="#000C1D"/>
<path d="M21.1465 26.9138V11.5345H34.6034" stroke="#000C1D" stroke-width="3"/>
<path d="M188.397 11.5345H201.853V26.9138" stroke="#000C1D" stroke-width="3"/>
<path d="M34.6034 107.655H21.1465V94.1983" stroke="#000C1D" stroke-width="3"/>
<path d="M201.853 92.2759V107.655H188.397" stroke="#000C1D" stroke-width="3"/>
<path d="M97.0819 154.754V163.405H125.918V154.754C125.918 146.788 119.466 140.336 111.5 140.336C103.534 140.336 97.0819 146.788 97.0819 154.754ZM85.5474 163.405V154.754C85.5474 140.426 97.172 128.802 111.5 128.802C125.828 128.802 137.453 140.426 137.453 154.754V163.405H140.336C146.698 163.405 151.871 168.578 151.871 174.94V209.543C151.871 215.905 146.698 221.078 140.336 221.078H82.6638C76.3018 221.078 71.1293 215.905 71.1293 209.543V174.94C71.1293 168.578 76.3018 163.405 82.6638 163.405H85.5474Z" fill="white"/>
<path d="M121.112 185.411C121.112 191.194 116.809 205.698 111.5 205.698C106.191 205.698 101.888 191.194 101.888 185.411C101.888 179.628 106.191 174.94 111.5 174.94C116.809 174.94 121.112 179.628 121.112 185.411Z" fill="#000C1D"/>
<path d="M57.0948 58.6336C57.0948 61.5212 54.754 63.8621 51.8664 63.8621C48.9788 63.8621 46.6379 61.5212 46.6379 58.6336C46.6379 55.746 48.9788 53.4052 51.8664 53.4052C54.754 53.4052 57.0948 55.746 57.0948 58.6336Z" stroke="black" stroke-width="3"/>
<path d="M176.362 58.6336C176.362 61.5212 174.021 63.8621 171.134 63.8621C168.246 63.8621 165.905 61.5212 165.905 58.6336C165.905 55.746 168.246 53.4052 171.134 53.4052C174.021 53.4052 176.362 55.746 176.362 58.6336Z" stroke="black" stroke-width="3"/>
</svg>
