<svg width="26" height="26" viewBox="0 0 26 26" fill="none" xmlns="http://www.w3.org/2000/svg">
<circle cx="13" cy="13" r="13" fill="#EFEFEF"/>
<path d="M18.7682 8.40663C19.1213 8.04237 19.065 7.50134 18.6401 7.19869C18.2151 6.89603 17.5839 6.94424 17.2308 7.3085L13 11.6608L8.76915 7.3085C8.41606 6.94424 7.78487 6.89603 7.35991 7.19869C6.93495 7.50134 6.87871 8.04237 7.2318 8.40663L11.697 13L7.2318 17.5934C6.87871 17.9576 6.93495 18.4987 7.35991 18.8013C7.78487 19.104 8.41606 19.0558 8.76915 18.6915L13 14.3392L17.2308 18.6915C17.5839 19.0558 18.2151 19.104 18.6401 18.8013C19.065 18.4987 19.1213 17.9576 18.7682 17.5934L14.303 13L18.7682 8.40663Z" fill="black"/>
</svg>
