<svg width="60" height="60" viewBox="0 0 60 60" fill="none" xmlns="http://www.w3.org/2000/svg">
<circle cx="30" cy="30" r="29.5" fill="white" stroke="#DFDFDF"/>
<path d="M28.5778 41.5836C29.3646 42.2582 30.6423 42.2582 31.4291 41.5836L41.4998 32.9477C42.2865 32.273 42.2865 31.1773 41.4998 30.5026C40.713 29.828 39.4353 29.828 38.6485 30.5026L32.0144 36.1969V19.6376C32.0144 18.6823 31.1144 17.9105 30.0003 17.9105C28.8862 17.9105 27.9862 18.6823 27.9862 19.6376V36.1915L21.3521 30.508C20.5653 29.8334 19.2876 29.8334 18.5008 30.508C17.714 31.1827 17.714 32.2784 18.5008 32.9531L28.5715 41.589L28.5778 41.5836Z" fill="#0F62A5"/>
</svg>
