<svg width="30" height="40" viewBox="0 0 30 40" fill="none" xmlns="http://www.w3.org/2000/svg">
<path d="M16.8516 39.1012C20.8594 34.0726 30 21.8848 30 15.0389C30 6.73618 23.2812 0 15 0C6.71875 0 0 6.73618 0 15.0389C0 21.8848 9.14063 34.0726 13.1484 39.1012C14.1094 40.2996 15.8906 40.2996 16.8516 39.1012ZM15 10.0259C16.3261 10.0259 17.5979 10.5541 18.5355 11.4942C19.4732 12.4343 20 13.7094 20 15.0389C20 16.3684 19.4732 17.6435 18.5355 18.5836C17.5979 19.5237 16.3261 20.0519 15 20.0519C13.6739 20.0519 12.4021 19.5237 11.4645 18.5836C10.5268 17.6435 10 16.3684 10 15.0389C10 13.7094 10.5268 12.4343 11.4645 11.4942C12.4021 10.5541 13.6739 10.0259 15 10.0259Z" fill="#ECECEC"/>
</svg>
