<svg width="40" height="44" viewBox="0 0 40 44" fill="none" xmlns="http://www.w3.org/2000/svg">
<g clip-path="url(#clip0_2879_1984)">
<path d="M19.6152 12.0833C14.0484 12.0833 9.5582 16.4796 9.5582 21.93C9.5582 27.3804 14.0484 31.7766 19.6152 31.7766C25.182 31.7766 29.6722 27.3804 29.6722 21.93C29.6722 16.4796 25.182 12.0833 19.6152 12.0833ZM19.6152 28.3316C16.0178 28.3316 13.0768 25.4607 13.0768 21.93C13.0768 18.3993 16.009 15.5284 19.6152 15.5284C23.2213 15.5284 26.1535 18.3993 26.1535 21.93C26.1535 25.4607 23.2126 28.3316 19.6152 28.3316ZM32.4293 11.6806C32.4293 12.9575 31.379 13.9773 30.0836 13.9773C28.7794 13.9773 27.7378 12.9489 27.7378 11.6806C27.7378 10.4122 28.7881 9.38388 30.0836 9.38388C31.379 9.38388 32.4293 10.4122 32.4293 11.6806ZM39.0902 14.0115C38.9414 10.935 38.2237 8.20982 35.9217 5.96455C33.6284 3.71927 30.8451 3.01655 27.7028 2.8623C24.4642 2.68233 14.7574 2.68233 11.5188 2.8623C8.38532 3.00798 5.60193 3.7107 3.29994 5.95598C0.997947 8.20125 0.288968 10.9264 0.131418 14.003C-0.0523915 17.1738 -0.0523915 26.6776 0.131418 29.8484C0.280216 32.925 0.997947 35.6502 3.29994 37.8954C5.60193 40.1407 8.37657 40.8434 11.5188 40.9977C14.7574 41.1777 24.4642 41.1777 27.7028 40.9977C30.8451 40.852 33.6284 40.1493 35.9217 37.8954C38.2149 35.6502 38.9327 32.925 39.0902 29.8484C39.274 26.6776 39.274 17.1824 39.0902 14.0115ZM34.9064 33.2506C34.2236 34.9303 32.902 36.2243 31.1777 36.9013C28.5956 37.904 22.4686 37.6726 19.6152 37.6726C16.7618 37.6726 10.626 37.8954 8.05272 36.9013C6.33716 36.2329 5.01549 34.9389 4.32402 33.2506C3.29994 30.7226 3.53626 24.7237 3.53626 21.93C3.53626 19.1363 3.30869 13.1289 4.32402 10.6094C5.00674 8.92968 6.32841 7.63565 8.05272 6.95864C10.6348 5.95598 16.7618 6.18736 19.6152 6.18736C22.4686 6.18736 28.6043 5.96455 31.1777 6.95864C32.8932 7.62708 34.2149 8.92111 34.9064 10.6094C35.9304 13.1374 35.6941 19.1363 35.6941 21.93C35.6941 24.7237 35.9304 30.7311 34.9064 33.2506Z" fill="#ECECEC"/>
</g>
<defs>
<clipPath id="clip0_2879_1984">
<rect width="39.2126" height="43.8771" fill="white"/>
</clipPath>
</defs>
</svg>
