<svg width="39" height="39" viewBox="0 0 39 39" fill="none" xmlns="http://www.w3.org/2000/svg">
<path d="M36.2143 0H2.77701C1.24487 0 0 1.26228 0 2.81183V36.1882C0 37.7377 1.24487 39 2.77701 39H36.2143C37.7464 39 39 37.7377 39 36.1882V2.81183C39 1.26228 37.7464 0 36.2143 0ZM11.7871 33.4286H6.0067V14.8165H11.7958V33.4286H11.7871ZM8.89687 12.2746C7.04263 12.2746 5.54531 10.7685 5.54531 8.92299C5.54531 7.07746 7.04263 5.57143 8.89687 5.57143C10.7424 5.57143 12.2484 7.07746 12.2484 8.92299C12.2484 10.7772 10.7511 12.2746 8.89687 12.2746ZM33.4547 33.4286H27.6743V24.375C27.6743 22.2161 27.6308 19.4391 24.671 19.4391C21.6589 19.4391 21.1975 21.7895 21.1975 24.2183V33.4286H15.4172V14.8165H20.9625V17.3585H21.0408C21.8156 15.896 23.7047 14.3551 26.5165 14.3551C32.3665 14.3551 33.4547 18.2116 33.4547 23.2259V33.4286Z" fill="#ECECEC"/>
</svg>
